<?xml version="1.0" encoding="UTF-8"?>
<svg version="1.1" xmlns="http://www.w3.org/2000/svg" width="511" height="511">
<path d="M0 0 C1.37693972 -0.00302934 2.75387775 -0.0069227 4.13081288 -0.01159257 C7.87258626 -0.02178076 11.61426284 -0.01971448 15.35604382 -0.01541197 C19.40799655 -0.01292785 23.45992698 -0.02197971 27.51187134 -0.02944946 C35.43421895 -0.0421523 43.35653259 -0.04399566 51.27888867 -0.0416492 C57.7238655 -0.0398608 64.16883208 -0.04162683 70.61380768 -0.04587364 C71.53368446 -0.04646883 72.45356124 -0.04706402 73.40131308 -0.04767724 C75.27050644 -0.04888909 77.1396998 -0.05010323 79.00889316 -0.05131962 C96.51052597 -0.0621783 114.01213947 -0.06004069 131.51377335 -0.05393478 C147.49246741 -0.048768 163.47110046 -0.06001773 179.44978246 -0.07903299 C195.89199879 -0.09844851 212.3341863 -0.10666084 228.77641416 -0.10290974 C237.99328447 -0.10100321 247.21010289 -0.10343151 256.42696381 -0.11762428 C264.27416994 -0.12958657 272.12129224 -0.13088903 279.96849963 -0.11883412 C283.96470718 -0.11297904 287.96076176 -0.11175142 291.95695877 -0.12383652 C330.65305887 -0.23287403 330.65305887 -0.23287403 347.69512939 6.51069641 C348.48596924 6.81443176 349.27680908 7.11816711 350.09161377 7.43110657 C356.51259893 9.98448848 362.23113183 13.08744864 367.75762939 17.26069641 C368.66641846 17.93874329 369.57520752 18.61679016 370.51153564 19.31538391 C391.97037519 36.08849632 403.85547033 59.28666666 407.55209577 86.01760638 C408.02900417 91.22234345 407.9055588 96.46387533 407.90480042 101.68579102 C407.90810341 103.05938772 407.91182989 104.43298346 407.91594189 105.80657798 C407.92592097 109.57167898 407.92967208 113.33676404 407.9323312 117.10187638 C407.9362466 121.16693869 407.94582421 125.23198853 407.95454407 129.29704285 C407.97427631 139.11113988 407.98437174 148.9252379 407.99327186 158.73934981 C407.9976611 163.3685802 408.00302635 167.99780946 408.00826073 172.62703896 C408.0252717 188.02972393 408.03976301 203.43240821 408.04700947 218.83510113 C408.04891916 222.82926115 408.05083952 226.82342117 408.05279541 230.81758118 C408.05327915 231.81023241 408.05376289 232.80288364 408.05426129 233.8256152 C408.06255089 249.88424616 408.08787029 265.94280237 408.12037609 282.00140073 C408.15352534 298.5134616 408.17146542 315.02548459 408.17465371 331.53757888 C408.17681181 340.79823907 408.18545714 350.05879034 408.21111488 359.31941795 C408.23292983 367.21102862 408.24081975 375.1025039 408.2311481 382.9941413 C408.22663408 387.01287734 408.22831809 391.0313347 408.24790955 395.05003166 C408.38566305 424.98198309 405.89018886 453.43370851 385.75762939 477.26069641 C385.10149658 478.06249329 384.44536377 478.86429016 383.76934814 479.69038391 C372.33278098 493.11319217 358.07982348 501.96878122 341.25762939 507.07319641 C340.61857666 507.26824768 339.97952393 507.46329895 339.32110596 507.66426086 C327.94409725 510.86104802 316.30956188 511.55714851 304.55322266 511.52139282 C303.18040773 511.5244222 301.8075945 511.52831558 300.43478417 511.53298539 C296.70441228 511.54317307 292.97413748 511.54110744 289.24375796 511.5368048 C285.20407525 511.53432058 281.16441491 511.54337265 277.1247406 511.55084229 C269.22645643 511.56354486 261.32820633 511.56538852 253.42991367 511.56304202 C247.00448298 511.56125359 240.57906258 511.56301972 234.15363312 511.56726646 C233.2365317 511.56786165 232.31943027 511.56845684 231.3745379 511.56907007 C229.51098154 511.57028192 227.64742518 511.57149605 225.78386882 511.57271244 C208.33517112 511.58357103 190.88649278 511.58143356 173.437794 511.5753276 C157.50759881 511.57016084 141.57746482 511.58141053 125.64728174 511.60042582 C109.25478594 511.61984157 92.86231904 511.62805362 76.46981168 511.62430257 C67.28088698 511.62239607 58.09201433 511.62482399 48.90309906 511.63901711 C41.07968141 511.65097968 33.25634786 511.65228152 25.43292895 511.64022694 C21.44887283 511.63437207 17.46497015 511.63314366 13.48092461 511.64522934 C-20.29414687 511.740527 -51.07043722 508.04071303 -76.29315186 483.33882141 C-95.87772721 463.30157742 -103.39351437 437.19006747 -103.38954163 409.83560181 C-103.39284462 408.4620051 -103.3965711 407.08840936 -103.4006831 405.71481484 C-103.41066218 401.94971384 -103.41441329 398.18462878 -103.41707242 394.41951644 C-103.42098781 390.35445413 -103.43056542 386.28940429 -103.43928528 382.22434998 C-103.45901752 372.41025294 -103.46911295 362.59615492 -103.47801307 352.78204301 C-103.48240231 348.15281262 -103.48776756 343.52358336 -103.49300194 338.89435387 C-103.51001291 323.49166889 -103.52450422 308.08898462 -103.53175068 292.68629169 C-103.53366037 288.69213167 -103.53558073 284.69797165 -103.53753662 280.70381165 C-103.53802036 279.71116042 -103.5385041 278.71850919 -103.5390025 277.69577762 C-103.5472921 261.63714666 -103.5726115 245.57859045 -103.6051173 229.51999209 C-103.63826655 213.00793123 -103.65620663 196.49590824 -103.65939492 179.98381394 C-103.66155302 170.72315375 -103.67019836 161.46260248 -103.69585609 152.20197487 C-103.71767104 144.3103642 -103.72556096 136.41888892 -103.71588931 128.52725152 C-103.71137529 124.50851548 -103.7130593 120.49005812 -103.73265076 116.47136116 C-103.87040426 86.53940973 -101.37493007 58.08768431 -81.24237061 34.26069641 C-80.25817139 33.0580011 -80.25817139 33.0580011 -79.25408936 31.83100891 C-59.12745602 8.20889081 -30.28455814 -0.09181983 0 0 Z " fill="#10522E" transform="translate(103.24237060546875,-0.2606964111328125)"/>
<path d="M0 0 C1.79244141 0.01740234 1.79244141 0.01740234 3.62109375 0.03515625 C5.41740234 0.04869141 5.41740234 0.04869141 7.25 0.0625 C8.17683594 0.07410156 9.10367188 0.08570312 10.05859375 0.09765625 C17.89980985 18.78170942 25.66201723 37.49510338 33.24609375 56.28515625 C33.76828491 57.57885132 33.76828491 57.57885132 34.30102539 58.89868164 C34.65350342 59.77194092 35.00598145 60.6452002 35.36914062 61.54492188 C40.88124693 75.19989834 46.42844285 88.84023394 51.99609375 102.47265625 C52.41734528 103.50422852 52.8385968 104.53580078 53.27261353 105.59863281 C57.69586589 116.42941412 62.12350486 127.25839843 66.5546875 138.0859375 C66.91753342 138.97259598 67.28037933 139.85925446 67.65422058 140.77278137 C69.47260449 145.21602369 71.29148928 149.65906003 73.11108398 154.10180664 C77.33109287 164.40900289 81.53366996 174.72312398 85.72265625 185.04296875 C87.18953191 188.65382047 88.65656182 192.26460949 90.12359619 195.87539673 C91.0609604 198.18436029 91.9973245 200.49373019 92.93255615 202.80355835 C97.66641468 214.49507448 102.45560975 226.15825236 107.45703125 237.73828125 C107.85893677 238.67404495 108.26084229 239.60980865 108.67492676 240.57392883 C115.31455599 255.81961009 123.2172361 267.09841603 138.05859375 275.09765625 C139.04859375 275.65453125 140.03859375 276.21140625 141.05859375 276.78515625 C145.27495256 278.62981323 149.63046624 279.86373139 154.05859375 281.09765625 C154.05859375 281.42765625 154.05859375 281.75765625 154.05859375 282.09765625 C116.43859375 282.09765625 78.81859375 282.09765625 40.05859375 282.09765625 C42.0156139 280.79297615 43.99441832 279.52023258 45.99609375 278.28515625 C50.63591406 274.97099888 53.30232274 271.50156704 55.05859375 266.09765625 C56.8685017 246.88316841 49.40544612 231.20349259 37.6796875 216.1953125 C15.31466613 189.27942024 -15.84597108 173.42550258 -49.94140625 167.09765625 C-49.94140625 166.76765625 -49.94140625 166.43765625 -49.94140625 166.09765625 C-23.54140625 166.09765625 2.85859375 166.09765625 30.05859375 166.09765625 C24.61359375 152.73265625 24.61359375 152.73265625 19.05859375 139.09765625 C16.3436732 132.3225103 13.63482828 125.54537639 10.94140625 118.76171875 C10.22931723 116.97053933 9.51714675 115.1793923 8.80490112 113.38827515 C7.33731361 109.69696104 5.87048832 106.0053454 4.40429688 102.31347656 C2.53994151 97.61913274 0.67389044 92.92546518 -1.19268608 88.23200417 C-2.65347068 84.55850382 -4.11351938 80.88471136 -5.57333755 77.21082687 C-6.26120381 75.47985763 -6.94925477 73.74896177 -7.63750839 72.01814651 C-9.19309998 68.1054928 -10.74466352 64.19141455 -12.28509521 60.27276611 C-13.34048127 57.59282281 -14.42487097 54.92856647 -15.54156494 52.27362061 C-16.01011902 51.13322327 -16.4786731 49.99282593 -16.96142578 48.81787109 C-17.37103546 47.84764008 -17.78064514 46.87740906 -18.20266724 45.8777771 C-19.40998206 41.33424949 -18.23236474 37.41191204 -16.55859375 33.12768555 C-16.28160645 32.41061935 -16.00461914 31.69355316 -15.71923828 30.95475769 C-15.27233643 29.82473076 -15.27233643 29.82473076 -14.81640625 28.671875 C-14.50944824 27.88367874 -14.20249023 27.09548248 -13.88623047 26.28340149 C-13.24004435 24.62755983 -12.59106737 22.97280488 -11.93945312 21.3190918 C-10.9387443 18.77839785 -9.94721185 16.23426628 -8.95703125 13.68945312 C-8.32735498 12.07921892 -7.69716483 10.46918555 -7.06640625 8.859375 C-6.76847168 8.09590256 -6.47053711 7.33243011 -6.16357422 6.54582214 C-3.62578326 0.12037793 -3.62578326 0.12037793 0 0 Z " fill="#FBFCFC" transform="translate(183.94140625,96.90234375)"/>
<path d="M0 0 C32.34 0 64.68 0 98 0 C95.1937413 1.87083913 92.48693152 3.2016669 89.4375 4.625 C78.97381183 9.84417618 71.07494636 15.94656905 66.8515625 27.0078125 C63.25627156 37.79368532 62.85799356 48.42180289 62.79467773 59.71362305 C62.78477814 60.82713638 62.77487854 61.94064972 62.76467896 63.08790588 C62.73336221 66.72915601 62.7084258 70.37041913 62.68359375 74.01171875 C62.6629984 76.55190855 62.64200129 79.09209513 62.62062073 81.63227844 C62.57126826 87.61010651 62.52593515 93.58795169 62.48259836 99.56582528 C62.43298129 106.37855588 62.37815502 113.19124155 62.32291877 120.00392854 C62.20953511 134.00257699 62.10260347 148.00126868 62 162 C60.37078031 159.55617047 59.3982904 157.70102178 58.37451172 155.01147461 C58.06525757 154.20451141 57.75600342 153.39754822 57.43737793 152.56613159 C57.10484009 151.6870816 56.77230225 150.80803162 56.4296875 149.90234375 C56.07700806 148.97898224 55.72432861 148.05562073 55.36096191 147.10427856 C54.19539303 144.05003761 53.03515312 140.99380182 51.875 137.9375 C51.05451239 135.78365346 50.23370736 133.62992782 49.41259766 131.47631836 C47.735392 127.07575786 46.06027132 122.67441196 44.38671875 118.27246094 C42.29616228 112.77526473 40.19695534 107.28142927 38.09375 101.7890625 C29.96147477 80.53744576 21.94055649 59.24429142 13.94690704 37.94022751 C13.12897948 35.76060455 12.31070509 33.58111205 11.49237061 31.40164185 C10.19753753 27.95267669 8.9039814 24.50323517 7.61142731 21.0534153 C6.90069242 19.15708097 6.18897578 17.26111468 5.47723389 15.36515808 C4.83325653 13.64478081 4.83325653 13.64478081 4.17626953 11.88964844 C3.80261261 10.89269958 3.42895569 9.89575073 3.04397583 8.86859131 C1.97509412 5.9315647 0.98836397 2.96509192 0 0 Z " fill="#FDFCFD" transform="translate(250,97)"/>
<path d="M0 0 C0.33 0 0.66 0 1 0 C1 23.1 1 46.2 1 70 C-30.02 70 -61.04 70 -93 70 C-93 69.67 -93 69.34 -93 69 C-92.36610352 68.92483154 -91.73220703 68.84966309 -91.07910156 68.7722168 C-64.03285313 65.52283551 -35.87699753 60.40231771 -17.625 38.09765625 C-9.20287371 26.58836543 -4.14115733 13.58093832 0 0 Z " fill="#F7F8F8" transform="translate(457,309)"/>
<path d="M0 0 C0.33 0 0.66 0 1 0 C0.99887207 0.76441406 0.99774414 1.52882813 0.99658203 2.31640625 C0.88786737 29.46424213 0.88786737 29.46424213 14.609375 52.0703125 C18.10698779 54.89354897 21.73030301 56.64742459 26 58 C26 58.33 26 58.66 26 59 C3.23 59 -19.54 59 -43 59 C-40.21384209 56.21384209 -37.78990474 53.99639447 -34.6875 51.6875 C-21.09984142 41.13161541 -13.14195322 27.13402142 -5.86083984 11.80224609 C-4.60992329 9.18333912 -3.30522566 6.59217085 -2 4 C-1.608125 3.21625 -1.21625 2.4325 -0.8125 1.625 C-0.544375 1.08875 -0.27625 0.5525 0 0 Z " fill="#F7F9F8" transform="translate(94,320)"/>
</svg>
